<svg width="222" height="61" viewBox="0 0 222 61" fill="none" xmlns="http://www.w3.org/2000/svg">
<path d="M74.4721 24.0484L73.9459 23.464C71.7795 21.0614 68.8704 19.7302 65.8064 19.7302C63.1139 19.7302 60.5761 20.7367 58.5335 22.5549C56.4909 20.7367 53.9531 19.7302 51.2915 19.7302C48.2276 19.7302 45.3184 21.0614 43.152 23.4315L42.595 24.0484C39.6858 27.2627 38.6954 31.7758 39.5929 35.8992C35.2911 31.1913 31.3916 26.0289 26.5636 21.8406C25.9446 21.2886 26.0374 20.899 26.2541 20.4769C26.316 20.3146 26.4088 20.1847 26.5017 20.0224C28.7609 15.4444 31.0511 10.8664 33.2794 6.28848C34.146 4.50274 35.4149 3.59364 37.3337 3.72352C39.1597 3.88585 40.3048 4.98976 40.8928 6.77549C41.2023 7.68459 41.4189 8.6911 42.6259 8.23655C43.3377 7.97681 43.4925 7.45732 43.4615 6.8729C43.4615 6.58069 43.3377 6.19107 43.2449 5.86639C42.4712 3.26896 40.15 1.28843 37.5813 1.02868C35.0435 0.768939 32.3819 2.29493 31.1749 4.73002C28.9466 9.24305 26.7183 13.7561 24.5829 18.3016C23.9639 19.6328 23.4068 19.9899 21.8903 19.5029C11.7082 16.1912 1.55708 24.4705 1 34.9576C1 35.4122 1 35.8667 1 36.3537C1.03095 37.3927 1.15474 38.4317 1.37138 39.4706C2.98071 47.0032 9.10854 52.6526 16.041 52.9773C24.0877 53.3669 30.4941 48.724 32.908 40.8668C33.3104 39.6005 33.4342 38.3018 33.4961 37.0355C33.4961 37.0031 33.4961 36.9706 33.4961 36.9381C33.527 36.1264 33.527 35.2823 33.527 34.5031C33.527 34.3732 33.527 34.2433 33.527 34.1134C33.527 33.9511 33.527 33.7563 33.527 33.594C34.0841 33.4966 34.2388 33.8537 34.4245 34.081C37.9836 38.107 41.6665 42.0031 45.0709 46.159C48.0419 49.8279 51.632 51.9058 55.3149 52.5877C57.3884 53.0097 59.4929 52.9448 61.5355 52.4903C64.878 51.711 67.9728 49.8604 70.3868 47.0681C70.913 46.4512 72.7903 44.1572 73.82 42.2328C77.186 35.9426 78.6197 29.174 74.3792 24.1133L74.4721 24.0484ZM31.113 36.6135C31.0821 37.8472 30.8654 39.081 30.494 40.2823C28.4824 46.5486 23.4687 50.3474 17.248 50.3149C9.85131 50.25 4.12581 44.8603 3.53779 36.8407C3.53779 36.7433 3.53779 36.6784 3.53779 36.6135C3.13546 29.9576 7.28257 23.9185 13.5651 22.1003C14.277 21.9055 15.0197 21.8406 15.7316 21.8406C20.1263 21.8406 21.8284 21.9705 22.1379 22.6198C22.2927 22.912 22.1379 23.3341 21.8903 23.8536C20.1263 27.4251 18.3622 30.9965 16.5981 34.568C16.4124 34.9901 16.1648 35.4122 16.1029 35.8342C16.0101 36.3213 16.1648 36.7758 16.8148 37.068C17.9599 37.62 18.455 36.6135 18.8883 35.6719C20.5905 32.1329 22.3546 28.6588 23.9948 25.0874C24.5519 23.9185 24.9233 23.8861 25.9137 24.6653C29.1633 27.2303 31.113 31.7108 31.113 36.094C31.113 36.2888 31.113 36.4511 31.113 36.6135ZM69.5298 44.3319C66.7785 48.2671 59.5548 50.8344 54.015 48.9837C54.015 48.9837 42.3783 45.1525 42.0998 32.8147C42.0379 30.0225 43.0592 27.3277 44.8852 25.2822H44.9161C46.6183 23.3666 48.8775 22.3276 51.2606 22.3276C53.6436 22.3276 55.9029 23.3666 57.6051 25.2172C58.1002 25.7692 58.9049 25.7692 59.4001 25.2172C61.1023 23.3341 63.3615 22.2951 65.7755 22.2951C68.1895 22.2951 70.4487 23.3341 72.1509 25.2172L72.677 25.8017C74.7197 28.0419 74.9559 30.716 74.503 33.6914C74.1516 36.0001 73.5297 37.6149 72.677 39.2461C71.719 41.0788 70.8309 42.5208 70.5204 42.9983C70.2099 43.4757 69.5298 44.3319 69.5298 44.3319Z" fill="#F61515" stroke="#F61515" stroke-width="0.3"/>
<path d="M91.72 35.784C93.2133 35.784 94.536 36.1573 95.688 36.904C96.8613 37.6507 97.7893 38.6853 98.472 40.008C99.1547 41.3093 99.496 42.8133 99.496 44.52C99.496 46.2267 99.1547 47.7413 98.472 49.064C97.7893 50.3867 96.872 51.432 95.72 52.2C94.568 52.9467 93.2667 53.32 91.816 53.32C91.0053 53.32 90.2373 53.192 89.512 52.936C88.7867 52.6587 88.1467 52.3173 87.592 51.912C87.0373 51.4853 86.5787 51.0373 86.216 50.568C85.8747 50.0987 85.6613 49.6613 85.576 49.256L86.44 48.84V51.624C86.44 52.072 86.28 52.456 85.96 52.776C85.6613 53.0747 85.288 53.224 84.84 53.224C84.3707 53.224 83.9867 53.0747 83.688 52.776C83.3893 52.4773 83.24 52.0933 83.24 51.624V30.952C83.24 30.4827 83.3893 30.0987 83.688 29.8C83.9867 29.48 84.3707 29.32 84.84 29.32C85.288 29.32 85.6613 29.48 85.96 29.8C86.28 30.0987 86.44 30.4827 86.44 30.952V39.944L85.928 39.656C85.992 39.2507 86.1947 38.8347 86.536 38.408C86.8773 37.96 87.304 37.5333 87.816 37.128C88.3493 36.7227 88.9467 36.4027 89.608 36.168C90.2907 35.912 90.9947 35.784 91.72 35.784ZM91.368 38.728C90.344 38.728 89.448 38.984 88.68 39.496C87.9333 40.008 87.3467 40.7013 86.92 41.576C86.4933 42.4293 86.28 43.4107 86.28 44.52C86.28 45.6293 86.4933 46.632 86.92 47.528C87.3467 48.4027 87.9333 49.096 88.68 49.608C89.448 50.12 90.344 50.376 91.368 50.376C92.3707 50.376 93.2453 50.12 93.992 49.608C94.7387 49.096 95.3253 48.392 95.752 47.496C96.2 46.6 96.424 45.608 96.424 44.52C96.424 43.4107 96.2 42.4293 95.752 41.576C95.3253 40.7013 94.7387 40.008 93.992 39.496C93.2453 38.984 92.3707 38.728 91.368 38.728ZM104.523 51.368C104.523 51.8373 104.374 52.232 104.075 52.552C103.776 52.8507 103.392 53 102.923 53C102.475 53 102.091 52.8507 101.771 52.552C101.472 52.232 101.323 51.8373 101.323 51.368V37.672C101.323 37.2027 101.472 36.8187 101.771 36.52C102.091 36.2 102.475 36.04 102.923 36.04C103.392 36.04 103.776 36.2 104.075 36.52C104.374 36.8187 104.523 37.2027 104.523 37.672V51.368ZM102.891 33.928C102.272 33.928 101.824 33.8213 101.547 33.608C101.27 33.3733 101.131 32.9893 101.131 32.456V31.944C101.131 31.4107 101.28 31.0373 101.579 30.824C101.878 30.6107 102.326 30.504 102.923 30.504C103.563 30.504 104.022 30.6213 104.299 30.856C104.576 31.0693 104.715 31.432 104.715 31.944V32.456C104.715 33.0107 104.566 33.3947 104.267 33.608C103.99 33.8213 103.531 33.928 102.891 33.928ZM109.083 53C108.635 53 108.251 52.8507 107.931 52.552C107.633 52.232 107.483 51.8373 107.483 51.368V30.952C107.483 30.4827 107.633 30.0987 107.931 29.8C108.251 29.48 108.635 29.32 109.083 29.32C109.553 29.32 109.937 29.48 110.235 29.8C110.534 30.0987 110.683 30.4827 110.683 30.952V51.368C110.683 51.8373 110.534 52.232 110.235 52.552C109.937 52.8507 109.553 53 109.083 53ZM119.516 36.104C119.921 36.104 120.273 36.2747 120.571 36.616C120.87 36.9573 121.02 37.2987 121.02 37.64C121.02 38.0667 120.817 38.4613 120.411 38.824L110.395 47.784L110.267 44.104L118.332 36.616C118.673 36.2747 119.068 36.104 119.516 36.104ZM119.899 52.968C119.451 52.968 119.067 52.7867 118.747 52.424L112.347 45.672L114.78 43.432L121.02 50.184C121.361 50.5467 121.531 50.952 121.531 51.4C121.531 51.8693 121.339 52.2533 120.955 52.552C120.593 52.8293 120.241 52.968 119.899 52.968ZM130.593 53.32C128.822 53.32 127.286 52.9573 125.985 52.232C124.683 51.4853 123.67 50.472 122.945 49.192C122.241 47.8907 121.889 46.408 121.889 44.744C121.889 42.8667 122.262 41.2667 123.009 39.944C123.777 38.6 124.769 37.576 125.985 36.872C127.201 36.1467 128.491 35.784 129.857 35.784C130.902 35.784 131.894 35.9973 132.833 36.424C133.771 36.8293 134.603 37.4053 135.329 38.152C136.075 38.8773 136.662 39.7413 137.089 40.744C137.515 41.7253 137.739 42.8027 137.761 43.976C137.739 44.4027 137.569 44.7547 137.249 45.032C136.929 45.3093 136.555 45.448 136.129 45.448H123.681L122.913 42.728H134.945L134.337 43.304V42.504C134.294 41.7573 134.049 41.1067 133.601 40.552C133.153 39.976 132.598 39.5387 131.937 39.24C131.275 38.92 130.582 38.76 129.857 38.76C129.217 38.76 128.598 38.8667 128.001 39.08C127.425 39.272 126.902 39.592 126.433 40.04C125.985 40.488 125.622 41.0853 125.345 41.832C125.089 42.5573 124.961 43.464 124.961 44.552C124.961 45.7253 125.206 46.7493 125.697 47.624C126.187 48.4987 126.849 49.1813 127.681 49.672C128.513 50.1413 129.43 50.376 130.433 50.376C131.222 50.376 131.873 50.3013 132.385 50.152C132.897 49.9813 133.323 49.7787 133.665 49.544C134.006 49.3093 134.305 49.0853 134.561 48.872C134.881 48.68 135.201 48.584 135.521 48.584C135.905 48.584 136.225 48.7227 136.481 49C136.737 49.256 136.865 49.5653 136.865 49.928C136.865 50.3973 136.63 50.824 136.161 51.208C135.585 51.7627 134.785 52.2533 133.761 52.68C132.758 53.1067 131.702 53.32 130.593 53.32ZM143.233 51.368C143.233 51.8373 143.073 52.232 142.753 52.552C142.455 52.8507 142.081 53 141.633 53C141.185 53 140.801 52.8507 140.481 52.552C140.183 52.232 140.033 51.8373 140.033 51.368V30.952C140.033 30.4827 140.193 30.0987 140.513 29.8C140.833 29.48 141.217 29.32 141.665 29.32C142.135 29.32 142.508 29.48 142.785 29.8C143.084 30.0987 143.233 30.4827 143.233 30.952V51.368ZM162.212 44.584C162.212 46.2907 161.838 47.8053 161.092 49.128C160.345 50.4293 159.332 51.4533 158.052 52.2C156.772 52.9467 155.332 53.32 153.732 53.32C152.132 53.32 150.692 52.9467 149.412 52.2C148.132 51.4533 147.108 50.4293 146.34 49.128C145.593 47.8053 145.22 46.2907 145.22 44.584C145.22 42.856 145.593 41.3413 146.34 40.04C147.108 38.7173 148.132 37.6827 149.412 36.936C150.692 36.168 152.132 35.784 153.732 35.784C155.332 35.784 156.772 36.168 158.052 36.936C159.332 37.6827 160.345 38.7173 161.092 40.04C161.838 41.3413 162.212 42.856 162.212 44.584ZM159.012 44.584C159.012 43.4107 158.777 42.3973 158.308 41.544C157.838 40.6693 157.198 39.9867 156.388 39.496C155.598 38.984 154.713 38.728 153.732 38.728C152.75 38.728 151.854 38.984 151.044 39.496C150.233 39.9867 149.593 40.6693 149.124 41.544C148.654 42.3973 148.42 43.4107 148.42 44.584C148.42 45.7147 148.654 46.7173 149.124 47.592C149.593 48.4667 150.233 49.1493 151.044 49.64C151.854 50.1307 152.75 50.376 153.732 50.376C154.713 50.376 155.598 50.1307 156.388 49.64C157.198 49.1493 157.838 48.4667 158.308 47.592C158.777 46.7173 159.012 45.7147 159.012 44.584ZM164.462 36.008C164.782 36.008 165.08 36.0933 165.358 36.264C165.656 36.4347 165.87 36.6907 165.998 37.032L171.022 48.648L170.414 48.936L175.502 37.064C175.8 36.36 176.28 36.0187 176.942 36.04C177.368 36.04 177.72 36.1787 177.998 36.456C178.296 36.712 178.446 37.0533 178.446 37.48C178.446 37.608 178.424 37.7467 178.382 37.896C178.339 38.024 178.286 38.152 178.222 38.28L172.142 51.976C171.864 52.616 171.406 52.9573 170.766 53C170.446 53.0427 170.126 52.9787 169.806 52.808C169.507 52.616 169.272 52.3387 169.102 51.976L163.054 38.28C163.011 38.1947 162.968 38.088 162.926 37.96C162.883 37.8107 162.862 37.64 162.862 37.448C162.862 37.128 163 36.808 163.278 36.488C163.576 36.168 163.971 36.008 164.462 36.008ZM187.786 53.32C186.016 53.32 184.48 52.9573 183.178 52.232C181.877 51.4853 180.864 50.472 180.138 49.192C179.434 47.8907 179.082 46.408 179.082 44.744C179.082 42.8667 179.456 41.2667 180.202 39.944C180.97 38.6 181.962 37.576 183.178 36.872C184.394 36.1467 185.685 35.784 187.05 35.784C188.096 35.784 189.088 35.9973 190.026 36.424C190.965 36.8293 191.797 37.4053 192.522 38.152C193.269 38.8773 193.856 39.7413 194.282 40.744C194.709 41.7253 194.933 42.8027 194.954 43.976C194.933 44.4027 194.762 44.7547 194.442 45.032C194.122 45.3093 193.749 45.448 193.322 45.448H180.874L180.106 42.728H192.138L191.53 43.304V42.504C191.488 41.7573 191.242 41.1067 190.794 40.552C190.346 39.976 189.792 39.5387 189.13 39.24C188.469 38.92 187.776 38.76 187.05 38.76C186.41 38.76 185.792 38.8667 185.194 39.08C184.618 39.272 184.096 39.592 183.626 40.04C183.178 40.488 182.816 41.0853 182.538 41.832C182.282 42.5573 182.154 43.464 182.154 44.552C182.154 45.7253 182.4 46.7493 182.89 47.624C183.381 48.4987 184.042 49.1813 184.874 49.672C185.706 50.1413 186.624 50.376 187.626 50.376C188.416 50.376 189.066 50.3013 189.578 50.152C190.09 49.9813 190.517 49.7787 190.858 49.544C191.2 49.3093 191.498 49.0853 191.754 48.872C192.074 48.68 192.394 48.584 192.714 48.584C193.098 48.584 193.418 48.7227 193.674 49C193.93 49.256 194.058 49.5653 194.058 49.928C194.058 50.3973 193.824 50.824 193.354 51.208C192.778 51.7627 191.978 52.2533 190.954 52.68C189.952 53.1067 188.896 53.32 187.786 53.32ZM198.571 53C198.102 53 197.718 52.8507 197.419 52.552C197.121 52.232 196.971 51.8373 196.971 51.368V37.8C196.971 37.3307 197.121 36.9467 197.419 36.648C197.718 36.328 198.102 36.168 198.571 36.168C199.019 36.168 199.393 36.328 199.691 36.648C200.011 36.9467 200.171 37.3307 200.171 37.8V41.384L199.851 40.008C200.022 39.4107 200.278 38.856 200.619 38.344C200.982 37.832 201.409 37.384 201.899 37C202.39 36.616 202.934 36.3173 203.531 36.104C204.15 35.8907 204.79 35.784 205.451 35.784C206.006 35.784 206.486 35.9333 206.891 36.232C207.297 36.5307 207.499 36.904 207.499 37.352C207.499 37.928 207.35 38.3547 207.051 38.632C206.753 38.888 206.422 39.016 206.059 39.016C205.739 39.016 205.43 38.952 205.131 38.824C204.833 38.6747 204.481 38.6 204.075 38.6C203.627 38.6 203.169 38.7173 202.699 38.952C202.23 39.1867 201.803 39.5387 201.419 40.008C201.035 40.456 200.726 40.9893 200.491 41.608C200.278 42.2267 200.171 42.92 200.171 43.688V51.368C200.171 51.8373 200.011 52.232 199.691 52.552C199.393 52.8507 199.019 53 198.571 53ZM207.754 50.376C207.562 50.0773 207.477 49.736 207.498 49.352C207.52 48.9467 207.744 48.6053 208.17 48.328C208.469 48.136 208.778 48.0613 209.098 48.104C209.44 48.1253 209.76 48.2853 210.058 48.584C210.656 49.2453 211.317 49.768 212.042 50.152C212.789 50.536 213.685 50.728 214.73 50.728C215.157 50.7067 215.594 50.6427 216.042 50.536C216.49 50.408 216.874 50.1947 217.194 49.896C217.514 49.576 217.674 49.1173 217.674 48.52C217.674 47.9867 217.504 47.56 217.162 47.24C216.821 46.92 216.373 46.664 215.818 46.472C215.264 46.2587 214.666 46.0667 214.026 45.896C213.344 45.704 212.65 45.4907 211.946 45.256C211.264 45.0213 210.645 44.7227 210.09 44.36C209.536 43.976 209.077 43.4853 208.714 42.888C208.373 42.2907 208.202 41.5547 208.202 40.68C208.202 39.6773 208.48 38.8133 209.034 38.088C209.61 37.3627 210.346 36.7973 211.242 36.392C212.16 35.9867 213.152 35.784 214.218 35.784C214.837 35.784 215.488 35.8693 216.17 36.04C216.853 36.1893 217.514 36.4347 218.154 36.776C218.794 37.1173 219.349 37.5653 219.818 38.12C220.032 38.3973 220.149 38.728 220.17 39.112C220.213 39.496 220.042 39.8373 219.658 40.136C219.402 40.3493 219.093 40.4453 218.73 40.424C218.368 40.4027 218.069 40.2853 217.834 40.072C217.429 39.56 216.906 39.1653 216.266 38.888C215.626 38.5893 214.901 38.44 214.09 38.44C213.685 38.44 213.258 38.504 212.81 38.632C212.384 38.7387 212.021 38.9413 211.722 39.24C211.424 39.5387 211.274 39.976 211.274 40.552C211.274 41.0853 211.445 41.512 211.786 41.832C212.149 42.152 212.618 42.4187 213.194 42.632C213.77 42.8453 214.4 43.0373 215.082 43.208C215.744 43.3787 216.394 43.5813 217.034 43.816C217.696 44.0507 218.282 44.36 218.794 44.744C219.328 45.1067 219.754 45.5867 220.074 46.184C220.416 46.76 220.586 47.496 220.586 48.392C220.586 49.4373 220.277 50.3333 219.658 51.08C219.061 51.8053 218.293 52.36 217.354 52.744C216.437 53.128 215.466 53.32 214.442 53.32C213.226 53.32 212.01 53.1067 210.794 52.68C209.6 52.232 208.586 51.464 207.754 50.376Z" fill="#F61515"/>
</svg>
